<svg xmlns="http://www.w3.org/2000/svg" xmlns:xlink="http://www.w3.org/1999/xlink" width="500" zoomAndPan="magnify" viewBox="0 0 375 374.999991" height="500" preserveAspectRatio="xMidYMid meet" version="1.0"><defs><clipPath id="af9f63e710"><path d="M 133 83 L 304.308594 83 L 304.308594 323.402344 L 133 323.402344 Z M 133 83 " clip-rule="nonzero"/></clipPath><clipPath id="8934dd6cb6"><path d="M 71.058594 52 L 241 52 L 241 292 L 71.058594 292 Z M 71.058594 52 " clip-rule="nonzero"/></clipPath></defs><g clip-path="url(#af9f63e710)"><path fill="#2cb67d" d="M 263.941406 91.929688 L 248.917969 83.949219 L 243.726562 109.601562 L 215.027344 251.476562 L 237.074219 239.542969 C 241.328125 237.238281 244.34375 233.167969 245.300781 228.425781 L 266.035156 125.917969 C 266.445312 123.90625 268.671875 122.851562 270.488281 123.816406 L 277.167969 127.367188 C 278.910156 128.292969 280.003906 130.105469 280.003906 132.082031 L 280.003906 243.257812 C 280.003906 245.234375 278.910156 247.046875 277.167969 247.972656 L 190.207031 294.167969 C 188.636719 295 186.757812 295 185.191406 294.167969 L 138.195312 269.207031 L 137.21875 274.089844 L 133.050781 294.882812 L 185.191406 322.582031 C 186.757812 323.414062 188.636719 323.414062 190.207031 322.582031 L 301.492188 263.46875 C 303.234375 262.539062 304.324219 260.730469 304.324219 258.753906 L 304.324219 116.585938 C 304.324219 114.613281 303.234375 112.796875 301.492188 111.871094 L 263.941406 91.929688 " fill-opacity="1" fill-rule="nonzero"/></g><g clip-path="url(#8934dd6cb6)"><path fill="#785af0" d="M 185.191406 52.757812 L 73.90625 111.871094 C 72.164062 112.796875 71.074219 114.613281 71.074219 116.585938 L 71.074219 258.753906 C 71.074219 260.730469 72.164062 262.539062 73.90625 263.46875 L 103.617188 279.25 L 126.761719 291.542969 L 131.90625 265.863281 L 153.332031 158.980469 L 210.90625 245.289062 L 218.066406 209.882812 L 160.691406 123.867188 L 160.367188 123.867188 L 138.429688 135.660156 C 134.148438 137.964844 131.113281 142.054688 130.15625 146.824219 L 109.574219 249.527344 C 109.167969 251.542969 106.9375 252.601562 105.121094 251.632812 L 98.230469 247.972656 C 96.484375 247.046875 95.394531 245.234375 95.394531 243.257812 L 95.394531 132.082031 C 95.394531 130.105469 96.484375 128.292969 98.230469 127.367188 L 185.191406 81.171875 C 186.757812 80.335938 188.636719 80.335938 190.207031 81.171875 L 235.628906 105.300781 L 236.53125 100.84375 L 240.816406 79.644531 L 190.207031 52.757812 C 188.636719 51.929688 186.757812 51.929688 185.191406 52.757812 " fill-opacity="1" fill-rule="nonzero"/></g></svg>